<?xml version="1.0" encoding="utf-8"?>
<!-- Generator: Adobe Illustrator 22.1.0, SVG Export Plug-In . SVG Version: 6.00 Build 0)  -->
<svg version="1.1" id="Calque_1" xmlns="http://www.w3.org/2000/svg" xmlns:xlink="http://www.w3.org/1999/xlink" x="0px" y="0px"
	 viewBox="0 0 157 186" style="enable-background:new 0 0 157 186;" xml:space="preserve">
<style type="text/css">
	.st0{fill:none;stroke:#76777E;stroke-miterlimit:10;}
	.st1{fill:url(#SVGID_1_);}
</style>
<path class="st0" d="M63.6,122.7c0,0-21-0.6-26.8-0.8s-4.2-4.4-4.2-4.4l-1.6-91c0-4.6,3.1-4.1,3.1-4.1l44.4-11.2c0,0,2.4-0.5,4.7,0
	c2.3,0.5,51.4,12.6,51.4,12.6s2.6,0,2.3,3.4l-1.1,93.4c0,0,0.3,2-2.3,2.2s-30.9,2.3-30.9,2.3"/>
<path class="st0" d="M62.9,124.2c1.6-0.8,1.7-3.4,1.7-3.4c12.3-2.9,37.1,0,37.1,0l0.8,1c0,0-0.4,9.3,2.2,16.2
	c2.5,6.9-16.2,6.9-28.2-2.9C76.5,135.2,65.8,124.4,62.9,124.2L62.9,124.2z M102.6,126.5l5,3.1c0,0,22,5.7,24.3,6.5
	c2.3,0.8,5.6,7.1,6.9,7.8c0.8,0.4,6.7,10.4,9.8,22.2c2.1,8.4,4.2,19.8,4.2,19.8 M62.9,124.2c0,0-4.2-0.4-5.4,0s-4.4,2.3-4.4,2.3
	s-10.4,1.9-14.3,2.1s-4.2,0.8-5.3,1.2s-15,6.7-16.2,7.3s-3.1,1.9-5.1,4.7c0,0-5.3,12.8-7.3,15.8s-7,20.6-7,28.5"/>
<linearGradient id="SVGID_1_" gradientUnits="userSpaceOnUse" x1="81.403" y1="155.8843" x2="132.687" y2="67.0583" gradientTransform="matrix(1 0 0 -1 0 182)">
	<stop  offset="0" style="stop-color:#EF3F7C"/>
	<stop  offset="0.977" style="stop-color:#FF029A"/>
	<stop  offset="1" style="stop-color:#FF009B"/>
</linearGradient>
<path class="st1" d="M85.3,16.9c-4.4,0.3-4.8,2.4-4.8,8.4v82.8c0,0-0.9,7,7,8.1s38.8,2.4,38.8,2.4s5.8,1,7.3-2.6s3.5-29.9,3.6-45.7
	s-0.8-27.7-1.8-35.1s-6.1-8.4-10.6-9.5C120.4,24.6,89.7,16.6,85.3,16.9z"/>
<path class="st0" d="M53,168.2c0,0-8,15.6-8,17.8 M136.2,156.2c0,0,0.1,6.7,1.3,13s1.2,10.1,1.7,16.8"/>
</svg>
