<?xml version="1.0" encoding="utf-8"?>
<!-- Generator: Adobe Illustrator 22.1.0, SVG Export Plug-In . SVG Version: 6.00 Build 0)  -->
<svg version="1.1" id="Calque_1" xmlns="http://www.w3.org/2000/svg" xmlns:xlink="http://www.w3.org/1999/xlink" x="0px" y="0px"
	 viewBox="0 0 150.8 191" style="enable-background:new 0 0 150.8 191;" xml:space="preserve">
<style type="text/css">
	.st0{opacity:0.8;}
	.st1{fill:none;stroke:#76777E;}
	.st2{fill:url(#Forme_111_1_);}
</style>
<g id="julien" transform="translate(3505.615 2422.711)">
	<g id="traits" class="st0">
		<path id="Forme_106" class="st1" d="M-3416.9-2275.6c13.8,7.2,33.5,6.7,40.2,2.6c6.7-4.1,6.3-9,5.6-11.2s-4.8-5.2-4.8-5.2
			c-0.1-0.9,2.2-11.7,2.2-11.7c0.2-4.5-3.5-7.8-3.5-7.8c7.6-5.7,4.8-9.9,4.8-9.9s6-1.7,4.8-6.9s-7.8-16.8-7.8-16.8
			c-0.6-3.4-0.2-6.8,1.3-9.9c2.5-5.3-1.7-11.7-1.7-11.7s-0.3,3.2-3-9.5s-13.4-19-13.4-19v-4.3c0,0,4.3-0.1,4.3-1.7
			c0,0-2.9,0.3-3.9-1.7s-5.6-8.8-14.3-9.1c0,0-11.9-6.7-16-6c0,0-6.4-8.1-12.1-7.3c0,0,7.7,1,9.5,7.8c0,0-3.8-1.9-6.5-3.5
			c-2.7-1.5-12.5-2.9-13.8,2.6c0,0,6.8-6.7,15.1,0.9c0,0-7.8,2.6-11.7,2.6c-3.8,0-5.5,0.8-9.5,3.9c-4,3.1-10.9,2.4-16.4,3
			c-5.5,0.7-9.7,1.7-12.1,8.2c-2.4,6.5-2.9,8.4-7.8,13.8s-4.8,4.6-4.8,6.5c0.5-1.4,1.6-2.5,3-3c2.2-0.8,4.2-2,6.1-3.5
			c0.8-0.7,0,0.9,0,0.9s-0.1,4.2-5.2,7.8c-5.1,3.5-6.8,7.7-6,13.4c0.1,2,0.4,4.1,0.9,6c0,0-3.1,4.6-0.9,7.3c2,2.3,2.5,5.4,1.3,8.2
			c-1.1,2.4,0,2.2,0,2.2s0.6-2.3,1.3-2.2s0.9,3.3,0,4.8c0.4,1.6,1.3,2.9,2.6,3.9c1.7,1.5,2.2,3.8,1.4,5.9c0,0.1-0.1,0.1-0.1,0.1
			c-0.7,0.6,1.3,1.1,2.2,1.7l-1.3,1.7c0,0,5.8,5,8.6,5.2c0,0-3.5,3.6-6.5,3c0,0,3.6,6.2,9.9,6.5c0,0,4.5,16.8,18.2,16.8
			c0,0,2.5-6.8,4.3-6.9l-4.8-1.3l3.9-3.9c-0.5-0.5-1-1.1-1.3-1.7c-0.6-1.1-1.4-4.7-0.9-6c0.4-0.9,1-1.6,1.7-2.2"/>
		<path id="Forme_108" class="st1" d="M-3456.3-2289.9c0,0-0.9,6.3-9.1,13c0,0-2.6,8.6,1.3,12.5c3.9,3.9,23.4,18.4,32.4,22.9
			s26.1,12.6,38.9,5.2c0,0,6.2-10.7-3-27.2"/>
		<path id="Forme_109" class="st1" d="M-3459.7-2282.6c-4.5,2.6-8.8,5.5-13,8.6c-4.8,3.9-15.7,10.2-19.9,11.7"/>
		<path id="Forme_110" class="st1" d="M-3372.4-2276.5c0,0,2.3,1.9,5.6,9.5"/>
		<path id="Forme_107" class="st1" d="M-3447.2-2315.8c0,0,0.6,6.4-3.5,4.8c-4.1-1.7-12.6-5.4-15.1-15.1c-2.6-9.7-0.9-8.2-0.9-8.2
			s4.6-2.1,4.8-3.9c0,0,4.6,5.3,6.1,5.6c0,0-1.4,4.5-5.6,5.6c0,0,2.3,2.4,4.3,2.6c0,0-1.6,2.5-3.9,1.7c1.6,0.4,3.2,0.5,4.8,0.4
			c-0.6,0.8-1.3,1.6-2.2,2.2c0,0,6-0.8,7.4-2.6l0.9,2.6c1.5,0.1,2.8,0.7,3.9,1.7"/>
	</g>
	
		<linearGradient id="Forme_111_1_" gradientUnits="userSpaceOnUse" x1="-7639.3115" y1="300.1484" x2="-7638.4155" y2="300.8706" gradientTransform="matrix(80.487 0 0 64.248 611423.5 -21603.9551)">
		<stop  offset="0" style="stop-color:#4663FF"/>
		<stop  offset="1" style="stop-color:#17A8D3"/>
	</linearGradient>
	<path id="Forme_111" class="st2" d="M-3449.3-2321.9c0,0,7.5-10.5,14.7-0.9l10.4,8.2l9.9,3.9c0,0,1.2,6.4,2.2,6.9l5.2,1.3
		c0,0,0.3-1.7,0.4-3.5s0-5.4,6.9-7.3c6.9-1.9,9.8-3.3,11.2-5.2c0,0-0.6-1.7,3-0.9c3.7,0.8,4.5,2.6,5.2,3s3.6,0.2,4.3-1.3
		c0,0,2.3-2.4,3.5,0.4c1.2,2.8,1.1,2,0.9,3.9c-0.3,1.9-3,2.6-3,2.6c0.1-0.9-0.5-1.7-1.4-1.8c-0.2,0-0.5,0-0.7,0.1
		c-2.3,0.3-9.4,3.2-10.8,3.5s-11.2,3.3-11.7,4.3s-5,8.8-3,11.2c1.9,2.4,3.5,6.4,6.5,4.8c3-1.6,3-6.5,3-6.5s5.3,2.4,9.1,2.2
		c2.9-0.1,5.6-1.2,7.8-3c0.6-0.6,1.3-1.1,2.2-1.3c0,0,1.7,2,1.3,3.9c-0.2,1.2-0.7,2.4-1.3,3.5c-0.6,1.2,1.6,1.1,2.6,2.6
		s3.6,4.4,1.3,8.2s-4.5,6.9-10.4,8.6c-5.9,1.7-8.5,2.6-10.8,3.9c-2.3,1.3-14.2,4.8-21.6,3.9c-7.4-0.9-10.1-1.5-14.3-6
		s-14.9-23.6-15.6-24.2c-2.3-4-3.4-8.6-3.3-13.2C-3445-2319.3-3449.3-2321.9-3449.3-2321.9L-3449.3-2321.9z"/>
</g>
</svg>
